<svg xmlns="http://www.w3.org/2000/svg" width="250" height="50" viewBox="0 0 250 50"><defs><style>      .cls-1 {        fill: #0fc8e0;        fill-rule: evenodd;      }    </style></defs><path id="Hamza_Bharmal" data-name="Hamza Bharmal" class="cls-1" d="M16.8,42.619a2.5,2.5,0,0,0,.425,1.388,1.776,1.776,0,0,0,1.388.935q0.962,0,1.416-1.812,1.841-8.071,7.845-18.776a12.176,12.176,0,0,1,2.039-.255h1.1a1.694,1.694,0,0,0,1.189-.51,1.844,1.844,0,0,0,.708-1.331q0-1.1-2.237-1.1-0.425,0-1.246.085,0.935-1.9,4.56-7.5,2.067-3.171,2.322-3.625a6.579,6.579,0,0,0,1.1-2.917,1.617,1.617,0,0,0-.34-0.991A1.316,1.316,0,0,0,36,5.661a1.877,1.877,0,0,0-1.444,1.218q-0.142.312-.963,1.614Q28.865,15.8,25.608,21.8,20.878,23.05,15.1,24.721l-1.416.4a24.146,24.146,0,0,1,1.954-3.738q8.1-13.084,8.1-16.058a1.164,1.164,0,0,0-1.331-1.3,1.673,1.673,0,0,0-1.359.736,26.549,26.549,0,0,0-1.586,3.37,107.737,107.737,0,0,1-6,11.045q-1.614,2.662-1.9,3.228-1.586,3.087-2.152,4.078Q8.531,26.845,7,27.411a10.491,10.491,0,0,0-2.011.878,1.467,1.467,0,0,0-.736,1.331q0,1.332.878,1.331a2.075,2.075,0,0,0,.821-0.2Q7,30.3,7.6,30.073,7.228,30.98,6.86,31.8q-1.5,3.427-1.784,4.135A43.5,43.5,0,0,0,3.6,40.34a15.931,15.931,0,0,0-.708,3.3,1.914,1.914,0,0,0,.453,1.218,1.629,1.629,0,0,0,1.3.736q0.991,0,1.274-1.586A54.463,54.463,0,0,1,11.193,29.79q0.226-.481.453-0.934a71.259,71.259,0,0,1,12.093-3.682Q16.8,39.9,16.8,42.619h0Zm21-2.832a4.229,4.229,0,0,0,.906,2.775,3.3,3.3,0,0,0,2.634,1.359,1.466,1.466,0,0,0,.991-0.368,1.1,1.1,0,0,0,.4-0.878,1.211,1.211,0,0,0-.708-1.19,5.316,5.316,0,0,1-1.161-.651,2.763,2.763,0,0,1-.708-1.954,12.263,12.263,0,0,1,.878-3.908,21.8,21.8,0,0,1,1.643-3.682,4.755,4.755,0,0,0,.793-1.954,1.891,1.891,0,0,0-.425-1.048,4.723,4.723,0,0,0,.481-1.728,1.994,1.994,0,0,0-.68-1.473,2.8,2.8,0,0,0-1.982-.736,6.773,6.773,0,0,0-3.937,1.473A18.331,18.331,0,0,0,31.6,32.311a15.2,15.2,0,0,0-1.982,6.939,4.355,4.355,0,0,0,.538,2.209A2.636,2.636,0,0,0,32.532,42.9q1.756,0,3.54-2.209a21.408,21.408,0,0,0,1.841-2.775q-0.114,1.3-.113,1.869h0Zm2.832-10.365a24.658,24.658,0,0,0-1.444,2.662,47.8,47.8,0,0,1-2.52,4.673q-1.813,2.889-3.172,2.889a0.934,0.934,0,0,1-.807-0.368,1.807,1.807,0,0,1-.269-1.076q0-2.889,2.775-7.052,2.52-3.766,4.673-3.767a1.391,1.391,0,0,1,.85.3,2.815,2.815,0,0,1,.736.92,4.133,4.133,0,0,0-.821.821h0Zm11.851-.68a6.044,6.044,0,0,0,1.048-1.982,0.777,0.777,0,0,0-.85-0.906q-0.935,0-2.634,2.577a49.773,49.773,0,0,0-4.418,8.3q-1.869,4.362-1.869,6.032a1.172,1.172,0,0,0,.312.821,0.914,0.914,0,0,0,.736.34,1.844,1.844,0,0,0,1.586-1.416,22.621,22.621,0,0,1,7.278-10.139,43.651,43.651,0,0,0-2.237,4.361,16.125,16.125,0,0,0-1.586,4.786,0.9,0.9,0,0,0,.963,1.076,1.865,1.865,0,0,0,1.529-1.274A29.121,29.121,0,0,1,55.4,36.5a27.339,27.339,0,0,1,4.9-4.984,21.16,21.16,0,0,0-1.7,2.492,10.616,10.616,0,0,0-1.473,5.211,5.8,5.8,0,0,0,.963,3.342,2.175,2.175,0,0,0,1.727,1.189,1.291,1.291,0,0,0,.963-0.453,1.233,1.233,0,0,0,.368-0.85,0.945,0.945,0,0,0-.227-0.651l-0.736-.934a3.286,3.286,0,0,1-.51-2.067q0-3.54,5.352-9.063a3.422,3.422,0,0,0,1.218-2.039,1.074,1.074,0,0,0-.4-0.85,1.316,1.316,0,0,0-.878-0.311q-2.436,0-9.062,6.655A15.85,15.85,0,0,1,58.034,29.9a3.642,3.642,0,0,0,.991-1.756,0.949,0.949,0,0,0-.311-0.68,1.087,1.087,0,0,0-.793-0.34q-0.934,0-3.682,2.124a40.662,40.662,0,0,0-4.191,3.908,34.729,34.729,0,0,1,2.435-4.418h0Zm20.064,5.494A74.37,74.37,0,0,1,79.09,28.6q1.586-1.1,1.586-2.039a1.234,1.234,0,0,0-.368-0.906,1.572,1.572,0,0,0-1.189-.51,7,7,0,0,0-1.5.2,20.633,20.633,0,0,1-4.73.538A8.232,8.232,0,0,1,71.5,25.8a11.963,11.963,0,0,0-1.5-.2,0.975,0.975,0,0,0-.708.312,1.152,1.152,0,0,0-.34.85q0,1.614,2.719,1.614,1.132,0,4.22-.368a54.9,54.9,0,0,0-8.808,8.836q-2.775,3.512-2.775,4.673a1.156,1.156,0,0,0,.453.878,1.658,1.658,0,0,0,1.133.425,6.3,6.3,0,0,0,2.039-.736,10.519,10.519,0,0,1,4.56-1.02,4.22,4.22,0,0,1,1.161.17,7.254,7.254,0,0,0,1.331.255,1.21,1.21,0,0,0,.906-0.425,1.343,1.343,0,0,0,.4-0.935q0-1.7-3.285-1.7a14.327,14.327,0,0,0-4.531.878,34.57,34.57,0,0,1,4.078-5.069h0Zm15.307,5.551a4.229,4.229,0,0,0,.906,2.775,3.3,3.3,0,0,0,2.634,1.359,1.466,1.466,0,0,0,.991-0.368,1.1,1.1,0,0,0,.4-0.878,1.211,1.211,0,0,0-.708-1.19,5.312,5.312,0,0,1-1.161-.651,2.762,2.762,0,0,1-.708-1.954,12.263,12.263,0,0,1,.878-3.908,21.8,21.8,0,0,1,1.643-3.682,4.755,4.755,0,0,0,.793-1.954,1.891,1.891,0,0,0-.425-1.048,4.721,4.721,0,0,0,.481-1.728,2,2,0,0,0-.68-1.473,2.8,2.8,0,0,0-1.982-.736,6.773,6.773,0,0,0-3.937,1.473,18.331,18.331,0,0,0-5.324,6.485,15.2,15.2,0,0,0-1.982,6.939,4.355,4.355,0,0,0,.538,2.209A2.636,2.636,0,0,0,82.587,42.9q1.756,0,3.54-2.209a21.408,21.408,0,0,0,1.841-2.775q-0.114,1.3-.113,1.869h0Zm2.832-10.365a24.663,24.663,0,0,0-1.444,2.662,47.825,47.825,0,0,1-2.52,4.673q-1.813,2.889-3.172,2.889a0.934,0.934,0,0,1-.807-0.368,1.807,1.807,0,0,1-.269-1.076q0-2.889,2.775-7.052,2.52-3.766,4.673-3.767a1.391,1.391,0,0,1,.85.3,2.816,2.816,0,0,1,.736.92,4.131,4.131,0,0,0-.821.821h0ZM135.205,19.4q5.409-3.4,5.409-8.071a4.64,4.64,0,0,0-1.869-3.767,7.542,7.542,0,0,0-4.871-1.5q-3.568,0-9.374,2.351a21.1,21.1,0,0,0-3.852,1.9,1.419,1.419,0,0,0-.595,1.274,1.629,1.629,0,0,0,.312.991A0.9,0.9,0,0,0,121.1,13a9.755,9.755,0,0,0,2.124-.85,28.969,28.969,0,0,1,3.54-1.473q-0.68,1.162-1.416,2.294-3.087,4.786-4.729,7.561-3.74,6.429-4.928,8.723a111.036,111.036,0,0,0-4.475,10.224,15.406,15.406,0,0,0-1.246,4.163,2.412,2.412,0,0,0,.425,1.331,1.691,1.691,0,0,0,1.416.935q0.792,0,1.161-1.331,0.057-.255.312-1.02A15.282,15.282,0,0,0,119.4,45a14.763,14.763,0,0,0,7.108-1.869,16.157,16.157,0,0,0,5.636-5.069A12.948,12.948,0,0,0,134.5,30.7a7.957,7.957,0,0,0-2.323-5.664,10.2,10.2,0,0,0-4.021-2.407q0.486-.152.963-0.319a30.1,30.1,0,0,0,6.089-2.91h0ZM126.2,17.159q1.586-2.322,1.9-2.86,0.822-1.246,1.133-1.671a3.762,3.762,0,0,0,.935-1.982,1.106,1.106,0,0,0-.482-0.906,18.351,18.351,0,0,1,2.407-.637,11.554,11.554,0,0,1,2.124-.212,4.638,4.638,0,0,1,2.379.51,2.36,2.36,0,0,1,1.3,2.124q0,2.946-4.928,5.919a26.836,26.836,0,0,1-9.062,3.427,39.4,39.4,0,0,1,2.294-3.71h0Zm-9.176,16.369a75.181,75.181,0,0,1,5.1-9.657,1.348,1.348,0,0,0,1.132.991,2.331,2.331,0,0,0,.51-0.057,10.507,10.507,0,0,1,2.1-.312,5.826,5.826,0,0,1,3.257.906,4.825,4.825,0,0,1,2.35,4.22,13.175,13.175,0,0,1-3.087,7.958,11.511,11.511,0,0,1-9.657,4.786,8.935,8.935,0,0,1-3.228-.481,10.364,10.364,0,0,1-1.416-.736,81.451,81.451,0,0,1,2.945-7.618h0Zm30.684-10.79q3.03-5.664,6.089-10.394a4.225,4.225,0,0,0,.907-2.124,1.52,1.52,0,0,0-.284-0.906,1.056,1.056,0,0,0-.878-0.538,1.4,1.4,0,0,0-1.019.51,11.808,11.808,0,0,0-1.331,1.982q-3.326,5.674-6.085,10.978c-0.134.259-.268,0.517-0.4,0.774q-2.917,5.607-6.288,13.707a22.959,22.959,0,0,0-1.812,5.3,1.426,1.426,0,0,0,.34.963,1.139,1.139,0,0,0,.878.368,1.283,1.283,0,0,0,1.132-1.1q3.995-9.686,9.771-12.6-2.124,3.6-2.549,4.361a12.2,12.2,0,0,0-1.784,5.749,3.069,3.069,0,0,0,.34,1.444,1.83,1.83,0,0,0,1.756,1.048,4.75,4.75,0,0,0,2.6-.991A16.4,16.4,0,0,0,153,37.1q2.153-3.115,2.153-4.22a0.567,0.567,0,0,0-.595-0.68,1.965,1.965,0,0,0-1.331,1.1q-3.626,5.438-5.154,5.438a0.664,0.664,0,0,1-.737-0.765,8.917,8.917,0,0,1,1.076-3,33.953,33.953,0,0,1,3.569-5.664A4.924,4.924,0,0,0,153.2,26.93a1.368,1.368,0,0,0-.51-1.048,1.414,1.414,0,0,0-.935-0.4q-1.161,0-3.851,1.869a28.946,28.946,0,0,0-4.192,3.653,66.635,66.635,0,0,1,3.993-8.269h0ZM163.75,39.787a4.226,4.226,0,0,0,.907,2.775,3.3,3.3,0,0,0,2.633,1.359,1.469,1.469,0,0,0,.992-0.368,1.1,1.1,0,0,0,.4-0.878,1.21,1.21,0,0,0-.708-1.19,5.318,5.318,0,0,1-1.161-.651,2.763,2.763,0,0,1-.708-1.954,12.247,12.247,0,0,1,.878-3.908,21.834,21.834,0,0,1,1.642-3.682,4.746,4.746,0,0,0,.793-1.954,1.89,1.89,0,0,0-.424-1.048,4.737,4.737,0,0,0,.481-1.728,2,2,0,0,0-.68-1.473,2.8,2.8,0,0,0-1.982-.736,6.776,6.776,0,0,0-3.937,1.473,18.335,18.335,0,0,0-5.324,6.485,15.2,15.2,0,0,0-1.982,6.939,4.349,4.349,0,0,0,.538,2.209,2.635,2.635,0,0,0,2.379,1.444q1.755,0,3.54-2.209a21.407,21.407,0,0,0,1.841-2.775q-0.114,1.3-.114,1.869h0Zm2.832-10.365a24.789,24.789,0,0,0-1.444,2.662,48,48,0,0,1-2.52,4.673q-1.814,2.889-3.172,2.889a0.933,0.933,0,0,1-.807-0.368,1.8,1.8,0,0,1-.27-1.076q0-2.889,2.776-7.052,2.215-3.31,4.146-3.711a2.579,2.579,0,0,1,.527-0.055,1.387,1.387,0,0,1,.849.3,2.812,2.812,0,0,1,.737.92,4.127,4.127,0,0,0-.822.821h0Zm11.654,0.538q1.386-1.756,1.5-1.9a2.326,2.326,0,0,0,.566-1.189,0.862,0.862,0,0,0-.368-0.708,1.135,1.135,0,0,0-.68-0.226q-1.1,0-2.747,2.124l-0.078.1a39.649,39.649,0,0,0-5.02,9.557,22.433,22.433,0,0,0-1.642,5.154,0.9,0.9,0,0,0,1.048.991,1.9,1.9,0,0,0,1.614-1.3,39.294,39.294,0,0,1,3.483-5.862,28,28,0,0,1,5.268-5.438,3.044,3.044,0,0,0-.595,1.614,1.52,1.52,0,0,0,.652,1.416,3.069,3.069,0,0,0,1.67.481,8.008,8.008,0,0,0,4.73-1.869q2.379-1.756,2.379-2.606a0.758,0.758,0,0,0-.255-0.538,0.653,0.653,0,0,0-.453-0.227,1.651,1.651,0,0,0-.85.34q-2.973,2.011-4.191,2.011a0.616,0.616,0,0,1-.736-0.651q0-1.161,2.888-3.455a2.378,2.378,0,0,0,1.076-1.388,1.071,1.071,0,0,0-.255-0.623,1.137,1.137,0,0,0-.849-0.623,2.9,2.9,0,0,0-.935.425,26.518,26.518,0,0,0-2.775,1.9,55.241,55.241,0,0,0-6.4,5.806,14.889,14.889,0,0,1,1.954-3.313h0Zm18.506-1.218a6.03,6.03,0,0,0,1.048-1.982,0.777,0.777,0,0,0-.849-0.906q-0.934,0-2.634,2.577a49.759,49.759,0,0,0-4.418,8.3q-1.869,4.362-1.869,6.032a1.174,1.174,0,0,0,.311.821,0.915,0.915,0,0,0,.737.34,1.844,1.844,0,0,0,1.586-1.416,22.613,22.613,0,0,1,7.278-10.139,43.582,43.582,0,0,0-2.237,4.361,16.114,16.114,0,0,0-1.586,4.786,0.9,0.9,0,0,0,.962,1.076,1.866,1.866,0,0,0,1.53-1.274,29.152,29.152,0,0,1,3.058-4.815,27.366,27.366,0,0,1,4.9-4.984,21.038,21.038,0,0,0-1.7,2.492,10.615,10.615,0,0,0-1.473,5.211,5.8,5.8,0,0,0,.963,3.342,2.174,2.174,0,0,0,1.727,1.189,1.29,1.29,0,0,0,.963-0.453,1.233,1.233,0,0,0,.368-0.85,0.944,0.944,0,0,0-.226-0.651l-0.736-.934a3.285,3.285,0,0,1-.51-2.067q0-3.54,5.352-9.063a3.421,3.421,0,0,0,1.218-2.039,1.074,1.074,0,0,0-.4-0.85,1.319,1.319,0,0,0-.878-0.311q-2.436,0-9.063,6.655a15.892,15.892,0,0,1,2.124-3.285,3.639,3.639,0,0,0,.991-1.756,0.95,0.95,0,0,0-.311-0.68,1.088,1.088,0,0,0-.793-0.34q-0.935,0-3.682,2.124a40.725,40.725,0,0,0-4.191,3.908,34.709,34.709,0,0,1,2.435-4.418h0Zm22.076,11.045a4.226,4.226,0,0,0,.906,2.775,3.3,3.3,0,0,0,2.634,1.359,1.466,1.466,0,0,0,.991-0.368,1.1,1.1,0,0,0,.4-0.878,1.21,1.21,0,0,0-.708-1.19,5.318,5.318,0,0,1-1.161-.651,2.763,2.763,0,0,1-.708-1.954,12.274,12.274,0,0,1,.878-3.908,21.747,21.747,0,0,1,1.643-3.682,4.76,4.76,0,0,0,.793-1.954,1.893,1.893,0,0,0-.425-1.048,4.716,4.716,0,0,0,.481-1.728,1.994,1.994,0,0,0-.679-1.473,2.8,2.8,0,0,0-1.983-.736,6.771,6.771,0,0,0-3.936,1.473,18.327,18.327,0,0,0-5.325,6.485,15.2,15.2,0,0,0-1.982,6.939,4.359,4.359,0,0,0,.538,2.209A2.635,2.635,0,0,0,213.55,42.9q1.755,0,3.54-2.209a21.407,21.407,0,0,0,1.841-2.775q-0.114,1.3-.113,1.869h0Zm2.832-10.365a24.554,24.554,0,0,0-1.445,2.662,48,48,0,0,1-2.52,4.673q-1.814,2.889-3.172,2.889a0.933,0.933,0,0,1-.807-0.368,1.8,1.8,0,0,1-.269-1.076q0-2.889,2.775-7.052,2.52-3.766,4.673-3.767a1.387,1.387,0,0,1,.849.3,2.812,2.812,0,0,1,.737.92,4.089,4.089,0,0,0-.821.821h0ZM234.011,30.3a68.367,68.367,0,0,0,7.59-8.213q7.078-9.232,7.08-13.2a2.219,2.219,0,0,0-.567-1.5,1.718,1.718,0,0,0-1.387-.651q-2.662,0-6.712,5.324a95.424,95.424,0,0,0-9.941,16.851,69.346,69.346,0,0,0-2.86,6.825,14.589,14.589,0,0,0-.963,4.39,2.6,2.6,0,0,0,.481,1.586,2.1,2.1,0,0,0,1.756.906q2.492,0,5.409-3.88,2.805-3.71,2.8-4.928a0.638,0.638,0,0,0-.736-0.708,1.614,1.614,0,0,0-1.246.963,34.9,34.9,0,0,1-2.266,3.37q-1.614,1.926-2.634,1.926a0.613,0.613,0,0,1-.679-0.708,7.648,7.648,0,0,1,.424-1.9q0.426-1.359,1.275-3.568,2.01-1.812,3.172-2.889h0Zm5.579-14.075q4.105-6.2,5.664-6.2a0.517,0.517,0,0,1,.538.623q0,1.3-2.407,5.3A51.742,51.742,0,0,1,232.85,28.686a88.58,88.58,0,0,1,6.74-12.461h0Z"></path></svg>